<?xml version="1.0" encoding="utf-8"?>
<!-- Generator: Adobe Illustrator 21.0.2, SVG Export Plug-In . SVG Version: 6.00 Build 0)  -->
<svg version="1.1" id="Layer_1" xmlns="http://www.w3.org/2000/svg" xmlns:xlink="http://www.w3.org/1999/xlink" x="0px" y="0px"
	 width="274px" height="87.5px" viewBox="0 0 274 87.5" enable-background="new 0 0 274 87.5" xml:space="preserve">
<g id="text">
	<path fill="#FFFFFF" d="M111.8,28.8c0.9,0,1.5,0.2,1.5,0.2l9.4,25.1c0,0-0.5,0.2-1.5,0.2c-0.9,0-1.3-0.2-1.3-0.2l-2.6-6.8H106
		l-2.6,6.8c0,0-0.4,0.2-1.3,0.2c-0.9,0-1.2-0.2-1.2-0.2l9.4-25.1C110.3,29,110.9,28.8,111.8,28.8z M111.6,31.9c0,0-0.2,1.1-0.7,2.4
		l-4.1,10.9h9.8l-4.1-10.9c-0.5-1.4-0.7-2.4-0.7-2.4H111.6z"/>
	<path fill="#FFFFFF" d="M140.5,35.4c0.2,0.6,0.2,1.5,0,2.2l-3.2,0.1c0.8,1,1.2,2.3,1.2,4c0,3.9-2.3,6.2-6.7,6.2
		c-0.7,0-1.3,0-1.9-0.2c-0.5,0.6-1,1.5-1,2.6c0.2,3.6,11.5-0.1,11.5,7.1c0,3.3-3.1,5.9-8.9,5.9c-5.1,0-7.3-2.2-7.3-5
		c0-2.8,2.2-4.5,3.1-5.1c-0.5-0.5-0.8-1.1-0.8-2.1c0-1.5,0.9-3,1.7-3.9c-2.1-1-3.2-2.9-3.2-5.5c0-3.9,2.4-6.2,6.7-6.2
		c1.5,0,2.8,0.3,3.8,0.9L140.5,35.4z M129,53.9c-1.3,0.9-2.1,2.4-2.1,3.8c0,2.1,1.6,3.6,4.8,3.6c3.9,0,6.3-1.5,6.3-3.7
		C138,54,132.2,55,129,53.9z M131.8,37.2c-2.5,0-4.2,1.4-4.2,4.3c0,2.9,1.7,4.4,4.2,4.4c2.5,0,4.2-1.4,4.2-4.4
		C136,38.6,134.3,37.2,131.8,37.2z"/>
	<path fill="#FFFFFF" d="M146.7,31.6c0,0-0.5,0.2-1.5,0.2c-1,0-1.5-0.2-1.5-0.2v-2.6c0,0,0.5-0.2,1.5-0.2c1,0,1.5,0.2,1.5,0.2V31.6z
		 M146.5,54.2c0,0-0.4,0.2-1.3,0.2c-0.9,0-1.3-0.2-1.3-0.2V35.9c0,0,0.4-0.2,1.3-0.2c0.9,0,1.3,0.2,1.3,0.2V54.2z"/>
	<path fill="#FFFFFF" d="M153.9,54.2c0,0-0.4,0.2-1.3,0.2c-0.9,0-1.3-0.2-1.3-0.2V27.9c0,0,0.4-0.2,1.3-0.2c0.9,0,1.3,0.2,1.3,0.2
		V54.2z"/>
	<path fill="#FFFFFF" d="M160.7,45.8c0.2,4.9,2.1,6.6,5.5,6.6c2.7,0,4.3-1.2,4.3-1.2c0.5,0.4,0.9,1.1,0.9,1.9c0,0-2,1.6-5.8,1.6
		c-5.1,0-7.7-3.4-7.7-9.8c0-6.7,3.1-9.6,7.6-9.6c4.3,0,6.7,2.6,6.7,6.9c0,2.2-0.4,3.7-0.4,3.7H160.7z M165.6,37.4
		c-2.8,0-4.8,1.9-5,6.5h9c0-0.2,0.1-0.9,0.1-2C169.8,39.5,168.7,37.4,165.6,37.4z"/>
	<path fill="#FFFFFF" d="M193.5,28.8c6.7,0,10.3,3.2,10.3,12.8c0,9.6-3.7,12.8-10.3,12.8H186V28.8H193.5z M193.2,52.1
		c4.9,0,7.7-2,7.7-10.5c0-8.6-2.9-10.5-7.7-10.5h-4.6v21.1H193.2z"/>
	<path fill="#FFFFFF" d="M210.9,31.6c0,0-0.5,0.2-1.5,0.2c-1,0-1.5-0.2-1.5-0.2v-2.6c0,0,0.5-0.2,1.5-0.2c1,0,1.5,0.2,1.5,0.2V31.6z
		 M210.8,54.2c0,0-0.4,0.2-1.3,0.2c-0.9,0-1.3-0.2-1.3-0.2V35.9c0,0,0.4-0.2,1.3-0.2c0.9,0,1.3,0.2,1.3,0.2V54.2z"/>
	<path fill="#FFFFFF" d="M230,35.4c0.2,0.6,0.2,1.5,0,2.2l-3.2,0.1c0.8,1,1.2,2.3,1.2,4c0,3.9-2.3,6.2-6.7,6.2c-0.7,0-1.3,0-1.9-0.2
		c-0.5,0.6-1,1.5-1,2.6c0.2,3.6,11.5-0.1,11.5,7.1c0,3.3-3.1,5.9-8.9,5.9c-5.1,0-7.3-2.2-7.3-5c0-2.8,2.2-4.5,3.1-5.1
		c-0.5-0.5-0.8-1.1-0.8-2.1c0-1.5,0.9-3,1.7-3.9c-2.1-1-3.2-2.9-3.2-5.5c0-3.9,2.4-6.2,6.7-6.2c1.5,0,2.8,0.3,3.8,0.9L230,35.4z
		 M218.5,53.9c-1.3,0.9-2.1,2.4-2.1,3.8c0,2.1,1.6,3.6,4.8,3.6c3.9,0,6.3-1.5,6.3-3.7C227.5,54,221.8,55,218.5,53.9z M221.4,37.2
		c-2.5,0-4.2,1.4-4.2,4.3c0,2.9,1.7,4.4,4.2,4.4c2.5,0,4.2-1.4,4.2-4.4C225.5,38.6,223.9,37.2,221.4,37.2z"/>
	<path fill="#FFFFFF" d="M236.2,31.6c0,0-0.5,0.2-1.5,0.2c-1,0-1.5-0.2-1.5-0.2v-2.6c0,0,0.5-0.2,1.5-0.2c1,0,1.5,0.2,1.5,0.2V31.6z
		 M236,54.2c0,0-0.4,0.2-1.3,0.2c-0.9,0-1.3-0.2-1.3-0.2V35.9c0,0,0.4-0.2,1.3-0.2c0.9,0,1.3,0.2,1.3,0.2V54.2z"/>
	<path fill="#FFFFFF" d="M244.8,47.9c0,3.4,1,4.7,3.8,4.7c0.9,0,1.7-0.2,1.7-0.2s0.2,0.4,0.2,1.1c0,0.6-0.1,1-0.1,1
		c-0.4,0.1-1.3,0.3-2.5,0.3c-4.2,0-5.6-2.4-5.6-6.7V37.7h-2.8c0,0-0.2-0.4-0.2-1c0-0.7,0.2-1,0.2-1h2.8v-3.4
		c0.7-0.5,1.6-0.6,2.6-0.6v3.9h5.1c0,0,0.2,0.4,0.2,1c0,0.6-0.2,1-0.2,1h-5.1V47.9z"/>
	<path fill="#FFFFFF" d="M260.2,35.3c5.1,0,6.4,2.5,6.4,7.2v11.7c0,0-0.3,0.2-1,0.2c-0.6,0-1-0.2-1-0.2l-0.4-2.7
		c-1,2.1-3.1,3.2-6,3.2c-3.3,0-5.5-2-5.5-5.7c0-3.7,2.2-5.5,6.7-5.5c2,0,3.8,0.2,4.7,0.3v-1.9c0-3-1.3-4.3-4.2-4.3
		c-2.7,0-5,0.9-5,0.9c-0.1,0-0.4-0.3-0.6-0.8c-0.2-0.5-0.2-1-0.2-1.1C254.2,36.5,256.9,35.3,260.2,35.3z M259.8,45.4
		c-2.9,0-4.4,1.1-4.4,3.7c0,2.6,1.4,3.6,3.7,3.6c3.1,0,5-2.4,5-5.6v-1.4C263.3,45.6,261.5,45.4,259.8,45.4z"/>
	<path fill="#FFFFFF" d="M274,54.2c0,0-0.4,0.2-1.3,0.2c-0.9,0-1.3-0.2-1.3-0.2V27.9c0,0,0.4-0.2,1.3-0.2c0.9,0,1.3,0.2,1.3,0.2
		V54.2z"/>
</g>
<path id="icon" fill="#FFFFFF" d="M39.9,39.4v12.9h3c3.9,0,7.1-2.9,7.1-6.4v0c0-3.6-3.2-6.4-7.1-6.4H39.9z"/>
<path id="circle" fill="#FFFFFF" d="M43.8,0C19.6,0,0,19.6,0,43.8s19.6,43.8,43.8,43.8s43.8-19.6,43.8-43.8S67.9,0,43.8,0z
	 M18.6,61.2l25.2-43.6l25.2,43.6H18.6z"/>
</svg>
