<svg viewBox="0 0 310.8 80.4" xmlns="http://www.w3.org/2000/svg"><g fill="#1f3554"><path d="M23.9 49.195c-7.6-1.8-14.6-5.7-20.1-11.4-1.7-1.7-3.9-4.5-3.8-7.8.1-2.4 1.3-4.6 3.4-5.8 1.5-.9 3.2-1.3 4.9-1.1.2 1 .5 2 .8 3-1.4-.5-3-.3-4.3.5-1.2.8-2 2.1-2.1 3.5-.1 1.8.9 3.6 3.1 5.8 5.4 5.6 12.5 9.4 20.2 10.9-.8.8-1.5 1.5-2.1 2.4zm54.1-22.8c-.3 1-1.6 1.5-3 1.1-.5-.1-1-.4-1.4-.7-.3-.3-.6-.5-1-.7-1.1-.2-2.2-.3-3.3-.3-1 0-1.9 0-2.9.1-.9.1-1.9.3-2.8.5-1.4.4-2.7.9-3.9 1.6 1 .2 1.9.6 2.8 1.1 2.5 1.2 4.5 3.3 5.6 5.8 1 2.2.6 4.7-.9 6.5s-4 2.6-6.4 2h-.1c-1.6-.4-3.1-.9-4.5-1.6-.1-.9-.2-2.2-.3-3.2 1.7.9 3.6 1.6 5.5 2.1h.1c1.3.4 2.7-.1 3.6-1.1s1.1-2.4.5-3.6c-.9-2-2.5-3.5-4.4-4.5-1.2-.8-2.7-1-4.1-.7-1 .4-1.8 1.1-2.3 2.1-.5 1-.7 2.1-.6 3.2 0 1.1.3 6.6.4 7.3.1 2.2.2 4.5.2 6.7s-.4 4.4-1 6.5c-1.6 5.9-5.8 10.8-11.3 13.4-3.3 1.3-6.8 2.2-10.3 2.7-1.6.3-3.2.5-4.7.9-2.3.5-4.6 1.3-6.8 2.4-1.7.9-3.8 2.4-4.2 4.4l-2.7-.5c2.1-11 4.9-19 9.3-25.9 1.8-3 4-5.8 6.4-8.3-2-1-4-2.2-5.8-3.5-13.9-10-18.7-27.4-10.6-38.6l.1-.1 1.2-1.5c1.1-1.3 2.7-2 4.4-2 1.6.1 3.1 1 4.6 2.8 1.5 1.9 3.3 4.3 5.3 7.1 5.9 8.1 14 19.2 22.9 25.8-.1-2.2.8-4.4 2.3-6 .3-.3.5-.6.8-.9.8-.8 1.6-1.5 2.5-2.1 1.8-1.3 3.8-2.2 5.9-2.8 1-.3 2.1-.5 3.2-.6s2.1-.2 3.2-.1c2.1.1 4.2.3 6.3.9h.2c1.3.3 2.2 1.4 2 2.3zm-53.3 45.1l-.1-.1c-1.7-.9-3.4-1.9-5-3-.6 1.9-1.2 4-1.7 6.2.5-.4 1-.7 1.6-1 1.6-.9 3.3-1.6 5.2-2.1zm14.8-3.3c-2.5-.6-5-1.5-7.4-2.5-3.3-1.4-6.5-3.2-9.4-5.3-.6 1.1-1.1 2.3-1.6 3.6 2.2 1.6 4.5 2.9 7 4 1.5.7 3 1.3 4.6 1.8 2.3-.3 4.6-.8 6.8-1.6zm9.3-7.2c-1.8-.1-5.4-.6-10.9-2.9-3.7-1.5-7.2-3.4-10.4-5.7-.8 1-1.4 2.1-2.1 3.1-.1.2-.3.5-.4.7 3.1 2.5 6.7 4.5 10.5 5.8 3.4 1.3 6.9 2.1 10.5 2.4 1.1-1.1 2-2.2 2.8-3.4zm3-19.1c-.1-.9-.1-1.8-.2-2.7-9.9-6.5-18.5-18.4-25.2-27.6-2-2.7-3.7-5.1-5.2-7-.6-.9-1.5-1.6-2.6-1.8-.9.1-1.7.5-2.3 1.2-.3.4-.6.7-.9 1.1l-.1.1c-7.2 10-2.8 25.6 9.9 34.7 2 1.4 4.1 2.7 6.4 3.7 2.7-2.5 6-4.1 9.6-4.8l.4-.1c.5-.1 1.1-.2 1.7-.1 2.9.3 5 2.9 4.7 5.7-.1 1.2-.6 2.3-1.4 3.1-1 1-2.4 1.6-3.8 1.6h-.5c-2.6-.2-5.3-.7-7.8-1.5.8-.8 1.6-1.5 2.6-2.1 1.8.4 3.6.7 5.4.9h.4c1.4 0 2.5-1.1 2.5-2.5v-.1c-.1-1.4-1.2-2.5-2.6-2.4h-.1l-.5.1c-1.2.3-2.2.5-3.2 1-.2.1-.5.2-.8.3-1.3.6-2.4 1.3-3.5 2.2-.4.3-.7.5-.9.7-.8.7-1.6 1.4-2.3 2.2-.3.4-.7.7-1 1.1 3.2 2.5 6.8 4.4 10.7 5.5 3.2 1.1 6.5 1.8 9.9 2 .1-.2.1-.3.2-.5.4-2 .7-3.9.7-5.9.1-2.6 0-5.4-.2-8.1zM110.9 41.242c-.7-.8-1.5-1.4-2.4-1.8-.8-.3-1.6-.4-2.4-.5-1.1 0-2.2.2-3.2.6-.9.5-1.8 1.1-2.5 1.8-.7.8-1.2 1.7-1.6 2.6-.4 1-.6 2.1-.6 3.2 0 1.2.2 2.3.6 3.4.3 1 .9 1.9 1.6 2.7s1.5 1.4 2.5 1.8 2.1.7 3.2.6c.9 0 1.9-.2 2.7-.7 1-.5 1.8-1.2 2.4-2.1l3.4 2.4c-1 1.4-2.3 2.4-3.8 3.1-1.5.6-3.1 1-4.7 1-1.7 0-3.3-.3-4.9-.9-1.4-.5-2.7-1.4-3.8-2.4-1.1-1.1-1.9-2.3-2.5-3.8-.6-1.5-.9-3.1-.9-4.8s.3-3.4.9-5c.6-1.4 1.4-2.7 2.5-3.8s2.4-1.9 3.8-2.4c1.6-.6 3.2-.9 4.9-.9 1.5 0 2.9.3 4.3.8 1.4.6 2.7 1.6 3.7 2.8zM133.7 35.942h3.5l9.8 22.8h-4.6l-2.1-5.2h-9.9l-2.1 5.2h-4.5zm5.2 14.1l-3.5-9.3-3.6 9.3zM158.6 35.942h5.4l11.1 17h.1v-17h4.1v22.8H174l-11.2-17.5h-.1v17.5h-4.1zM193.3 35.942h9c1.5 0 2.9.2 4.4.7 1.4.4 2.6 1.2 3.7 2.1 1.1 1 2 2.2 2.6 3.6.7 1.6 1 3.3 1 5 .1 3.3-1.4 6.5-4 8.6-1.2.9-2.5 1.6-3.9 2.1s-2.8.7-4.2.7h-8.5zm7.1 19.1c1.2 0 2.4-.1 3.6-.4 1.1-.3 2.1-.7 3-1.4.8-.6 1.5-1.4 2-2.4.5-1.1.8-2.3.7-3.6 0-1.2-.2-2.4-.6-3.5-.4-.9-1-1.8-1.8-2.4s-1.7-1.1-2.7-1.4c-1.1-.3-2.3-.4-3.4-.4h-3.7v15.5zM226.7 35.942h4.1v22.8h-4.1zM244.8 35.942h9c1.5 0 2.9.2 4.4.7 1.4.4 2.6 1.2 3.7 2.1 1.1 1 2 2.2 2.6 3.6.7 1.6 1 3.3 1 5 .1 3.3-1.4 6.5-4 8.6-1.2.9-2.5 1.6-3.9 2.1s-2.8.7-4.2.7h-8.5zm7.1 19.1c1.2 0 2.4-.1 3.6-.4 1.1-.3 2.1-.7 3-1.4.8-.6 1.5-1.4 2-2.4.5-1.1.8-2.3.7-3.6 0-1.2-.2-2.4-.6-3.5-.4-.9-1-1.8-1.8-2.4-.9-.6-1.8-1-2.8-1.3-1.1-.3-2.3-.4-3.4-.4h-3.7v15.5zM278.3 35.942h15.1v3.7h-11.1v5.6h10.5v3.7h-10.5v6.2H294v3.7h-15.7z"/></g></svg>