<?xml version="1.0" encoding="utf-8"?>
<!-- Generator: Adobe Illustrator 23.0.3, SVG Export Plug-In . SVG Version: 6.00 Build 0)  -->
<svg version="1.1" id="Layer_1" xmlns="http://www.w3.org/2000/svg" xmlns:xlink="http://www.w3.org/1999/xlink" x="0px" y="0px"
	 viewBox="0 0 1000 1000" style="enable-background:new 0 0 1000 1000;" xml:space="preserve">
<style type="text/css">
	.st0{fill:#0391EC;}
	.st1{fill:#FFFFFF;}
</style>
<rect class="st0" width="1000" height="1000"/>
<path class="st1" d="M677.5,195.2c-8.5-1.5-17.2-2.3-25.8-2.3c-71.1,0.4-131.6,51.7-143.8,121.7c-14.4,79.8,38.6,156.2,118.4,170.6
	c8.5,1.7,17.1,2.5,25.8,2.5c72,0.3,133.6-51.5,145.7-122.4C811.6,285.1,757.7,208.9,677.5,195.2z M652.1,464.4
	c-7.2,0-14.5-0.6-21.6-1.9c-32.1-5.5-60.7-23.8-79.1-50.6c-14.5-20.7-22.3-45.4-22.3-70.7c0-67.9,55-123,122.9-123.1
	c7.2,0,14.3,0.6,21.4,1.7c58.6,10.5,101.3,61.3,101.5,120.8C775.1,408.7,720.2,464.1,652.1,464.4z M596.1,512.5
	c-71.1,0.4-131.7,51.4-144.3,121.3c-14.3,80.1,38.9,156.6,119,171c8.4,1.6,17,2.3,25.6,2.3c71.3,0.1,132.4-51.1,144.8-121.3
	c1.5-8.6,2.3-17.4,2.3-26.2C743.5,578.3,677.5,512.4,596.1,512.5z M717,682.2c-10.3,58.8-61.4,101.7-121.1,101.7
	c-7.2,0-14.5-0.6-21.6-1.9c-32.2-5.6-60.8-23.8-79.5-50.6c-18.6-26.8-25.5-60-19.3-92c10.1-58.8,61.2-101.8,120.9-101.7l-0.4,0.2
	c7.3-0.1,14.6,0.5,21.8,1.7c0,0,0,0,0,0C684.7,551.5,729,615.4,717,682.2z M492.1,478c14.4-80.1-38.9-156.6-119-171
	c-8.5-1.5-17.2-2.3-25.8-2.3C266,304.7,200,370.7,200,452c0,81.4,65.9,147.3,147.3,147.3C418.6,599.3,479.5,548.2,492.1,478z
	 M347.7,576.3c-7.2-0.1-14.4-0.7-21.6-1.9c-58.6-10.5-101.3-61.3-101.5-120.8c-0.3-68.1,54.7-123.5,122.7-123.8v0
	c7.2,0.1,14.4,0.7,21.6,1.9c58.6,10.5,101.3,61.3,101.5,120.8C470.7,520.6,415.7,576,347.7,576.3z"/>
</svg>
