<svg xmlns="http://www.w3.org/2000/svg" width="166" viewBox="0 0 200 36"><defs><style>.cls-1{fill:#f4511e}</style></defs><g id="logo-dx-orange" transform="translate(-375 -17)"><g id="Group_306" data-name="Group 306" transform="translate(375 17)"><path id="Path_214" d="M25.282 12.152L11.421 4.523h13.861V0H0v15.716h4.559V6.122l17.177 9.594h3.546z" class="cls-1" data-name="Path 214"/><path id="Path_215" d="M25.282 55.593H10.73l14.552-8.041V44.4h-4.237L4.559 53.628V44.4H0v15.716h25.282z" class="cls-1" data-name="Path 215" transform="translate(0 -24.116)"/><path id="Path_216" d="M85.32 0H63.4v4.523h13.861L63.4 12.107v3.609h3.5l17.269-9.64v9.64h4.559V0z" class="cls-1" data-name="Path 216" transform="translate(-34.204)"/><path id="Path_217" d="M84.169 44.4v9.228L67.591 44.4H63.4v3.2l14.506 7.995H63.4v4.523h25.328V44.4z" class="cls-1" data-name="Path 217" transform="translate(-34.204 -24.116)"/></g><g id="Group_307" data-name="Group 307" transform="translate(444.814 26.365)"><path id="Path_218" d="M162.33 29.18c0-3.746-1.658-5.619-5.02-5.619h-1.98v11.376h1.612c3.546 0 5.388-1.919 5.388-5.756m3.868-.091a8.613 8.613 0 0 1-2.487 6.624c-1.657 1.507-4.052 2.286-7.137 2.286H151.6V20.5h5.526c2.855 0 5.112.731 6.677 2.239a8.545 8.545 0 0 1 2.395 6.35" class="cls-1" data-name="Path 218" transform="translate(-151.6 -20.5)"/><path id="Path_219" d="M193.355 31.6a2.34 2.34 0 0 0-1.842.731 3.214 3.214 0 0 0-.737 2.1h5.158a3.2 3.2 0 0 0-.691-2.1 2.441 2.441 0 0 0-1.888-.731m.553 11.239a6.906 6.906 0 0 1-5.066-1.782A6.632 6.632 0 0 1 187 36.036a7.335 7.335 0 0 1 1.7-5.208 6.932 6.932 0 0 1 9.118-.228 6.135 6.135 0 0 1 1.612 4.477v1.782h-8.75a3.62 3.62 0 0 0 .921 2.421 3.254 3.254 0 0 0 2.441.868 12.286 12.286 0 0 0 2.3-.228 9.692 9.692 0 0 0 2.258-.82v2.832a10.1 10.1 0 0 1-2.072.731 19.584 19.584 0 0 1-2.625.183" class="cls-1" data-name="Path 219" transform="translate(-170.698 -25.117)"/><path id="Path_220" d="M219.912 42.94L214.8 29.6h3.822l2.579 7.629a16.047 16.047 0 0 1 .553 2.741h.092a11.979 11.979 0 0 1 .553-2.741l2.579-7.629h3.822l-5.112 13.34z" class="cls-1" data-name="Path 220" transform="translate(-185.696 -25.443)"/><path id="Path_221" d="M251.6 31.6a2.34 2.34 0 0 0-1.842.731 3.214 3.214 0 0 0-.737 2.1h5.158a3.2 3.2 0 0 0-.691-2.1 2.441 2.441 0 0 0-1.888-.731m.507 11.239a6.906 6.906 0 0 1-5.066-1.782 6.631 6.631 0 0 1-1.842-5.025 7.335 7.335 0 0 1 1.7-5.208 6.932 6.932 0 0 1 9.118-.228 6.135 6.135 0 0 1 1.612 4.477v1.782h-8.7a3.62 3.62 0 0 0 .921 2.421 3.254 3.254 0 0 0 2.441.868 12.287 12.287 0 0 0 2.3-.228 9.691 9.691 0 0 0 2.256-.822v2.832a10.1 10.1 0 0 1-2.072.731 20.355 20.355 0 0 1-2.671.183" class="cls-1" data-name="Path 221" transform="translate(-202.096 -25.117)"/><path id="Path_222" d="M278.159 36.079L273.83 29.5h4.145l2.625 4.294 2.625-4.294h4.191l-4.375 6.579 4.559 6.807h-4.191l-2.809-4.569-2.855 4.569H273.6z" class="cls-1" data-name="Path 222" transform="translate(-217.418 -25.388)"/><path id="Path_223" d="M313.409 31.924a2.3 2.3 0 0 0-1.98.822 4.618 4.618 0 0 0-.645 2.741v.413a5.617 5.617 0 0 0 .645 3.061 2.221 2.221 0 0 0 2.026.914c1.658 0 2.487-1.325 2.487-4.02a5.742 5.742 0 0 0-.6-2.97 2.141 2.141 0 0 0-1.934-.959m1.105 10.919a4.523 4.523 0 0 1-3.73-1.69h-.183c.138 1.1.184 1.782.184 1.919v5.437H307.1V29.228h2.993l.507 1.736h.184a4.71 4.71 0 0 1 7.552-.137 8.3 8.3 0 0 1 1.335 5.071 10.04 10.04 0 0 1-.645 3.7 5.191 5.191 0 0 1-1.8 2.421 4.455 4.455 0 0 1-2.717.822" class="cls-1" data-name="Path 223" transform="translate(-235.491 -25.117)"/><path id="Path_224" d="M343.8 31.6a2.34 2.34 0 0 0-1.842.731 3.214 3.214 0 0 0-.737 2.1h5.158a2.97 2.97 0 0 0-.691-2.1 2.509 2.509 0 0 0-1.888-.731m.507 11.239a6.906 6.906 0 0 1-5.066-1.782 6.631 6.631 0 0 1-1.842-5.025 7.335 7.335 0 0 1 1.7-5.208A5.967 5.967 0 0 1 343.8 29a6.2 6.2 0 0 1 4.467 1.6 6.135 6.135 0 0 1 1.612 4.477v1.782h-8.7a3.62 3.62 0 0 0 .921 2.421 3.254 3.254 0 0 0 2.441.868 12.287 12.287 0 0 0 2.3-.228 9.693 9.693 0 0 0 2.259-.82v2.832a10.1 10.1 0 0 1-2.072.731 22.43 22.43 0 0 1-2.717.183" class="cls-1" data-name="Path 224" transform="translate(-251.837 -25.117)"/><path id="Path_225" d="M375.406 29a8.681 8.681 0 0 1 1.243.091l-.276 3.426a3.62 3.62 0 0 0-1.105-.137 3.9 3.9 0 0 0-2.717.914 3.223 3.223 0 0 0-.967 2.513v6.807H367.9V29.228h2.763l.553 2.239h.184a5 5 0 0 1 1.7-1.827 4.355 4.355 0 0 1 2.3-.64" class="cls-1" data-name="Path 225" transform="translate(-268.291 -25.117)"/><path id="Path_226" d="M395.846 36.814a7.933 7.933 0 0 0 2.3-.411v2.7a8.19 8.19 0 0 1-3.362.594 4.224 4.224 0 0 1-3.224-1.1 4.675 4.675 0 0 1-1.013-3.335v-6.443H388.8v-1.553l2.026-1.234 1.059-2.832h2.349v2.832h3.776v2.741h-3.776v6.442a1.327 1.327 0 0 0 .461 1.142 1.406 1.406 0 0 0 1.151.457" class="cls-1" data-name="Path 226" transform="translate(-279.567 -21.966)"/><path id="Path_227" d="M422.323 38.748A3.7 3.7 0 0 1 420.9 41.9a7.036 7.036 0 0 1-4.283 1.1 13.151 13.151 0 0 1-2.487-.183 8.66 8.66 0 0 1-1.934-.594v-3.064a15.046 15.046 0 0 0 2.3.822 8.9 8.9 0 0 0 2.257.32c1.335 0 1.98-.365 1.98-1.142a.926.926 0 0 0-.276-.685 3.507 3.507 0 0 0-.921-.594 13.538 13.538 0 0 0-1.75-.777 10.328 10.328 0 0 1-2.3-1.188 3.115 3.115 0 0 1-1.059-1.279 3.9 3.9 0 0 1-.327-1.736 3.137 3.137 0 0 1 1.382-2.741 6.936 6.936 0 0 1 3.96-.959 11.547 11.547 0 0 1 4.743 1.051L421.08 32.9c-.691-.274-1.289-.5-1.888-.685a6.124 6.124 0 0 0-1.8-.274c-1.105 0-1.612.274-1.612.868a1.165 1.165 0 0 0 .507.868 14.7 14.7 0 0 0 2.3 1.051 9.37 9.37 0 0 1 2.3 1.188A3.659 3.659 0 0 1 422 37.195a2.9 2.9 0 0 1 .322 1.553" class="cls-1" data-name="Path 227" transform="translate(-292.137 -25.225)"/></g></g></svg>