<?xml version="1.0" encoding="UTF-8" standalone="no"?>
<svg
   xmlns:dc="http://purl.org/dc/elements/1.1/"
   xmlns:cc="http://creativecommons.org/ns#"
   xmlns:rdf="http://www.w3.org/1999/02/22-rdf-syntax-ns#"
   xmlns:svg="http://www.w3.org/2000/svg"
   xmlns="http://www.w3.org/2000/svg"
   viewBox="0 0 1188.8533 286.25333"
   height="286.25333"
   width="1188.8533"
   xml:space="preserve"
   id="svg2"
   version="1.1"><metadata
     id="metadata8"><rdf:RDF><cc:Work
         rdf:about=""><dc:format>image/svg+xml</dc:format><dc:type
           rdf:resource="http://purl.org/dc/dcmitype/StillImage" /></cc:Work></rdf:RDF></metadata><defs
     id="defs6" /><g
     transform="matrix(1.3333333,0,0,-1.3333333,0,286.25333)"
     id="g10"><g
       transform="scale(0.1)"
       id="g12"><path
         id="path14"
         style="fill:#4abd52;fill-opacity:1;fill-rule:nonzero;stroke:none"
         d="M 240.676,396.18 C 32.5664,651.762 -60.3438,1004.87 41.4805,1376.48 137.277,1726.08 409.758,2002.75 758.363,2102.1 1486.12,2309.5 2146.94,1768.66 2146.94,1073.47 2146.94,491.961 1684.56,18.5117 1107.4,0.589844 L 1107.74,0 H 558.586 117.105 C 69.3828,0 39.6523,51.7695 63.7109,92.9883 L 240.676,396.18" /><path
         id="path16"
         style="fill:#212733;fill-opacity:1;fill-rule:nonzero;stroke:none"
         d="m 2419.14,915.809 c 0,70.242 54.64,124.881 124.88,124.881 70.26,0 124.89,-54.639 124.89,-124.881 V 124.879 C 2668.91,54.6406 2614.28,0 2544.02,0 2473.78,0 2419.14,54.6406 2419.14,124.879 Z m 127.49,561.971 c 85.86,0 156.1,-72.85 156.1,-156.11 0,-83.25 -70.24,-150.9 -156.1,-150.9 -80.65,0 -150.9,67.65 -150.9,150.9 0,83.26 70.25,156.11 150.9,156.11" /><path
         id="path18"
         style="fill:#212733;fill-opacity:1;fill-rule:nonzero;stroke:none"
         d="m 3293.32,546.359 h 465.7 L 3524.86,978.25 Z m 301.79,884.591 642.63,-1251.43 c 7.8,-18.211 13.01,-33.821 13.01,-52.032 C 4250.75,57.25 4198.7,0 4128.46,0 4076.43,0 4040.01,23.4219 4016.59,67.6406 L 3876.1,330.422 H 3176.24 L 3033.14,67.6406 C 3009.73,23.4219 2973.3,0 2921.26,0 c -70.24,0 -122.27,57.25 -122.27,127.488 0,18.211 5.19,33.821 13.01,52.032 l 642.62,1251.43 c 10.41,28.62 36.42,46.83 70.24,46.83 33.83,0 59.85,-18.21 70.25,-46.83" /><path
         id="path20"
         style="fill:#212733;fill-opacity:1;fill-rule:nonzero;stroke:none"
         d="M 5902.84,36.4297 5455.34,863.77 c -7.8,13.011 -10.4,31.218 -10.4,52.039 0,70.242 54.64,124.881 124.89,124.881 52.02,0 88.46,-20.82 111.87,-65.049 l 275.78,-520.34 275.77,520.34 c 23.43,44.229 59.85,65.049 111.89,65.049 70.24,0 124.88,-54.639 124.88,-124.881 0,-20.821 -2.61,-39.028 -10.41,-52.039 L 6012.12,36.4297 C 6004.3,13.0117 5986.1,0 5957.48,0 c -28.61,0 -46.83,13.0117 -54.64,36.4297" /><path
         id="path22"
         style="fill:#212733;fill-opacity:1;fill-rule:nonzero;stroke:none"
         d="m 6600.45,915.809 c 0,70.242 54.64,124.881 124.88,124.881 70.25,0 124.89,-54.639 124.89,-124.881 V 124.879 C 6850.22,54.6406 6795.58,0 6725.33,0 6655.09,0 6600.45,54.6406 6600.45,124.879 Z m 127.48,561.971 c 85.87,0 156.11,-72.85 156.11,-156.11 0,-83.25 -70.24,-150.9 -156.11,-150.9 -80.64,0 -150.89,67.65 -150.89,150.9 0,83.26 70.25,156.11 150.89,156.11" /><path
         id="path24"
         style="fill:#212733;fill-opacity:1;fill-rule:nonzero;stroke:none"
         d="m 7040.12,0 c -23.4,0 -46.81,26.0195 -46.81,57.25 0,7.8008 2.59,13 2.59,20.8086 l 457.9,733.6794 h -361.63 c -62.44,0 -111.87,49.434 -111.87,111.871 0,65.039 49.43,117.081 111.87,117.081 h 697.25 c 23.42,0 46.83,-26.01 46.83,-57.241 0,-7.808 -2.59,-13.008 -2.59,-20.82 L 7373.14,221.148 h 364.25 c 62.44,0 109.28,-46.828 109.28,-109.277 C 7846.67,49.4297 7799.83,0 7737.39,0 h -697.27" /><path
         id="path26"
         style="fill:#212733;fill-opacity:1;fill-rule:nonzero;stroke:none"
         d="m 8140.1,638.699 h 515.92 c -45.56,110 -145.18,166.403 -257.52,166.403 -114.65,0 -213.66,-56.403 -258.4,-166.403 z M 8397.88,5.12891 c -285.24,0 -517.31,232.24209 -517.31,517.69909 0,285.543 232.35,517.862 517.93,517.862 137.8,0 267.99,-54.87 366.61,-154.499 97.58,-98.57 151.32,-231.203 151.32,-366.761 0,-64.641 -52.41,-120.731 -117.06,-120.731 h -659.54 c 44.52,-80 143.44,-163.129 258.05,-163.129 69.38,0 136.37,27.629 188.61,74.469 48.15,43.152 122.15,40.031 165.3,-8.109 43.15,-48.141 39.11,-121.692 -9.03,-164.84 C 8647.51,51.7109 8525.03,5.12891 8397.88,5.12891" /><path
         id="path28"
         style="fill:#212733;fill-opacity:1;fill-rule:nonzero;stroke:none"
         d="m 4786.11,248.91 c -150.99,0 -273.82,122.828 -273.82,273.82 0,150.989 122.83,273.821 273.82,273.821 150.98,0 273.82,-122.832 273.82,-273.821 0,-150.992 -122.84,-273.82 -273.82,-273.82 z m 395.08,1228.87 c -70.25,0 -120,-59.49 -120,-129.73 V 959.5 c -80,50.72 -174.06,80.21 -275.76,80.21 -285.52,0 -516.64,-231.46 -516.64,-516.98 0,-285.511 231.63,-516.96828 517.15,-516.96828 103.84,0 200.54,30.72658 281.54,83.42968 C 5082.43,36.9883 5124.05,0 5181.82,0 c 70.24,0 119.37,54.6406 119.37,124.879 V 1352.89 c 0,70.25 -49.76,124.89 -120,124.89" /></g></g></svg>