<svg id="Brandmark" xmlns="http://www.w3.org/2000/svg" xmlns:xlink="http://www.w3.org/1999/xlink" viewBox="0 0 596 72"><defs><style>.cls-1{fill:none;}.cls-2{clip-path:url(#clip-path);}.cls-3{fill:#003b5c;}.cls-4{fill:url(#Unbenannter_Verlauf_26);}.cls-5{fill:#3f7397;}.cls-6{fill:#f55;}</style><clipPath id="clip-path" transform="translate(-72 -72)"><rect class="cls-1" width="740" height="216"/></clipPath><linearGradient id="Unbenannter_Verlauf_26" x1="111.82" y1="111.82" x2="142.41" y2="142.41" gradientUnits="userSpaceOnUse"><stop offset="0" stop-color="#00263e"/><stop offset="0.17" stop-color="#16415c"/><stop offset="0.35" stop-color="#275774"/><stop offset="0.54" stop-color="#336685"/><stop offset="0.74" stop-color="#3b6f8f"/><stop offset="1" stop-color="#3d7292"/></linearGradient></defs><title>Logo_Flag_Positive_RGB</title><g class="cls-2"><path class="cls-3" d="M180,128.9V83.6h7.81v45.3H180Z" transform="translate(-72 -72)"/><path class="cls-3" d="M203,128.9h-7.42V97.78h7.23v4.15a10.37,10.37,0,0,1,9.22-5c7.62,0,11.27,5.49,11.27,12.33V128.9h-7.42V110.5c0-3.84-1.73-6.91-6.41-6.91-4.22,0-6.46,3.26-6.46,7.35v18Z" transform="translate(-72 -72)"/><path class="cls-3" d="M239.31,97.78h6.46v6.58h-6.46V118.8c0,2.75,1.22,3.9,4,3.9a15.72,15.72,0,0,0,2.56-.26v6.13a11.58,11.58,0,0,1-4.54.7c-5.76,0-9.34-3.45-9.34-9.26V104.36h-5.77V97.78h1.6c3.33,0,4.8-2.11,4.8-4.85V88.26h6.72v9.52Z" transform="translate(-72 -72)"/><path class="cls-3" d="M277.9,120c-1.67,5.43-6.6,9.84-14.09,9.84-8.45,0-15.94-6.13-15.94-16.68,0-9.84,7.3-16.35,15.17-16.35,9.6,0,15.24,6.32,15.24,16.16a10.84,10.84,0,0,1-.19,2.36H255.3a8.35,8.35,0,0,0,8.52,8.12c4.48,0,6.79-2.37,7.81-5.44Zm-7.11-10.1c-0.12-3.64-2.56-6.9-7.68-6.9a7.47,7.47,0,0,0-7.62,6.9h15.3Z" transform="translate(-72 -72)"/><path class="cls-3" d="M301.56,105.13a15.74,15.74,0,0,0-2.43-.19c-5.76,0-8.38,3.32-8.38,9.14V128.9h-7.42V97.78h7.23v5c1.47-3.39,4.93-5.37,9-5.37a10.44,10.44,0,0,1,2,.19v7.54Z" transform="translate(-72 -72)"/><path class="cls-3" d="M318.45,129.73c-9.15,0-15-7.22-15-16.55,0-9,6-16.29,14.91-16.29,5.5,0,8.33,2.87,9.15,5V97.78h7.23v25.43c0,2.55.26,5,.32,5.68h-7.11a28.36,28.36,0,0,1-.32-4.47C326.2,127.43,322.93,129.73,318.45,129.73Zm0.83-6.39c4.87,0,8.26-4.16,8.26-10.16s-3.33-9.84-8.26-9.84-8.45,3.83-8.45,9.84S314.1,123.34,319.28,123.34Z" transform="translate(-72 -72)"/><path class="cls-3" d="M347.1,113.31c0,6.26,4,9.77,8.71,9.77a7.87,7.87,0,0,0,7.81-5.75l6.53,2.36a14.46,14.46,0,0,1-14.34,10.16c-9.15,0-16.13-7.1-16.13-16.55s7-16.49,15.94-16.49c8.38,0,13,5.24,14.28,10.22l-6.66,2.43a7.32,7.32,0,0,0-7.55-5.82C351.14,103.66,347.1,107,347.1,113.31Z" transform="translate(-72 -72)"/><path class="cls-3" d="M385.36,97.78h6.46v6.58h-6.46V118.8c0,2.75,1.22,3.9,4,3.9a15.72,15.72,0,0,0,2.56-.26v6.13a11.58,11.58,0,0,1-4.54.7c-5.76,0-9.34-3.45-9.34-9.26V104.36h-5.77V97.78h1.6c3.33,0,4.8-2.11,4.8-4.85V88.26h6.72v9.52Z" transform="translate(-72 -72)"/><path class="cls-3" d="M400.52,82a4.86,4.86,0,0,1,4.87,4.86A4.83,4.83,0,1,1,400.52,82Zm-3.65,46.9V97.78h7.37V128.9h-7.37Z" transform="translate(-72 -72)"/><path class="cls-3" d="M427.59,128.9h-7.42L407.48,97.78h8.19L423.94,120,432,97.78h7.81Z" transform="translate(-72 -72)"/><path class="cls-3" d="M469.63,120c-1.66,5.43-6.6,9.84-14.09,9.84-8.45,0-15.94-6.13-15.94-16.68,0-9.84,7.3-16.35,15.17-16.35,9.6,0,15.24,6.32,15.24,16.16a10.84,10.84,0,0,1-.19,2.36H447a8.35,8.35,0,0,0,8.52,8.12c4.48,0,6.79-2.37,7.81-5.44Zm-7.11-10.1c-0.12-3.64-2.56-6.9-7.68-6.9a7.47,7.47,0,0,0-7.62,6.9h15.3Z" transform="translate(-72 -72)"/><path class="cls-3" d="M509.61,90.82V128.9h-7.69V90.82H487.2V83.6h37.19v7.22H509.61Z" transform="translate(-72 -72)"/><path class="cls-3" d="M535.31,128.9h-7.42V82.64h7.42v18.15c2.12-2.75,5.64-3.9,8.9-3.9,7.68,0,11.4,5.49,11.4,12.33V128.9h-7.42V110.5c0-3.84-1.73-6.91-6.41-6.91-4.1,0-6.33,3.07-6.46,7V128.9Z" transform="translate(-72 -72)"/><path class="cls-3" d="M565.83,82a4.86,4.86,0,0,1,4.87,4.86A4.83,4.83,0,1,1,565.83,82Zm-3.65,46.9V97.78h7.37V128.9h-7.37Z" transform="translate(-72 -72)"/><path class="cls-3" d="M583.86,128.9h-7.42V97.78h7.23v4.15a10.37,10.37,0,0,1,9.22-5c7.62,0,11.27,5.49,11.27,12.33V128.9h-7.42V110.5c0-3.84-1.73-6.91-6.41-6.91-4.22,0-6.46,3.26-6.46,7.35v18Z" transform="translate(-72 -72)"/><path class="cls-3" d="M615.08,128.83a7.58,7.58,0,0,0,7.81,6.71c5.89,0,8.83-3,8.83-9.33V123c-1.35,2.43-4.48,4.54-9,4.54-8.32,0-14.4-6.39-14.4-15.14,0-8.31,5.83-15.14,14.4-15.14,4.87,0,7.88,2,9.22,4.53v-4h7.17V126c0,8.31-4.29,16-16,16-8.26,0-14-5.11-14.86-11.38Zm16.84-16.48c0-5.3-3.39-8.76-8-8.76s-8.13,3.45-8.13,8.76,3.26,8.82,8.13,8.82S631.92,117.71,631.92,112.35Z" transform="translate(-72 -72)"/><path class="cls-3" d="M649.82,118.68c0.26,2.81,2.37,5.3,6.33,5.3,3.08,0,4.68-1.66,4.68-3.58,0-1.66-1.15-2.93-3.65-3.45l-4.61-1c-5.5-1.21-8.38-4.79-8.38-9.07,0-5.44,5-10,11.46-10,8.7,0,11.52,5.62,12,8.69l-6.27,1.79c-0.26-1.79-1.6-4.67-5.76-4.67-2.63,0-4.48,1.66-4.48,3.58,0,1.66,1.22,2.88,3.14,3.26l4.73,1c5.89,1.27,9,4.86,9,9.45s-3.84,10-11.78,10c-9,0-12.48-5.88-12.87-9.39Z" transform="translate(-72 -72)"/><path class="cls-4" d="M108,115.64l7.65-7.65,26.77,26.77h0a5.41,5.41,0,0,1-7.65,7.65Z" transform="translate(-72 -72)"/><path class="cls-5" d="M81.23,73.58h0a5.41,5.41,0,0,0-7.65,7.65h0L100.35,108,73.58,134.76h0a5.41,5.41,0,0,0,7.65,7.65h0L108,115.64l7.65-7.65Z" transform="translate(-72 -72)"/><path class="cls-6" d="M142.41,81.23a5.41,5.41,0,0,0-.18-7.82,5.64,5.64,0,0,0-7.72.42L123.29,85.05a5.41,5.41,0,0,0,0,7.65h0a5.41,5.41,0,0,0,7.65,0Z" transform="translate(-72 -72)"/></g></svg>