<svg width="120" height="120" viewBox="0 0 120 120" fill="none" xmlns="http://www.w3.org/2000/svg">
<path fill-rule="evenodd" clip-rule="evenodd" d="M60 120C93.1371 120 120 93.1371 120 60C120 26.8629 93.1371 0 60 0C26.8629 0 0 26.8629 0 60C0 93.1371 26.8629 120 60 120Z" fill="#05CB63"/>
<path fill-rule="evenodd" clip-rule="evenodd" d="M28.9727 53.1264C27.2124 53.6276 26.9573 55.5927 28.3523 56.3491C28.8507 56.6193 49.4309 67.5244 50.2699 67.9667C51.1089 68.409 52.1078 68.1594 52.6163 67.41C52.9098 66.9776 53.7186 65.6458 54.3504 64.5964C54.8136 63.827 54.3738 62.741 53.5827 62.3648C53.1058 62.138 50.1287 60.5523 47.7622 59.2918C46.204 58.4619 44.9105 57.773 44.7693 57.7055C43.0665 56.8922 43.6795 54.9607 44.9407 54.543L51.3283 52.4276C51.9702 52.215 52.5198 51.6676 52.7365 51.0317L54.8587 44.8066C55.5044 42.9126 57.4255 43.3623 58.0631 44.5342C58.5754 45.4756 59.3865 46.9296 60.2 48.388C61.4124 50.5613 62.6304 52.7446 62.8734 53.2568C63.2795 54.1127 64.1321 54.4974 65.0216 53.9449C65.2299 53.8155 65.6033 53.5962 66.0303 53.3454C66.6105 53.0046 67.2897 52.6057 67.7879 52.2954C68.6526 51.7568 68.8985 50.823 68.5169 49.98C68.2544 49.4 62.9805 39.8103 59.6219 33.7032C58.0993 30.9347 56.9703 28.8819 56.8803 28.7087C56.068 27.1453 54.075 27.1512 53.5244 28.7661L47.6391 46.0296C47.4171 46.6807 46.9013 47.1907 46.2405 47.4125C42.5754 48.6426 30.4642 52.7017 28.9727 53.1264ZM84.1284 85.8344C83.3013 85.3885 57.0972 71.5246 56.0166 70.9727C54.9359 70.4209 54.6726 69.4724 55.2508 68.4444C55.5449 67.9216 56.1824 66.8788 56.7019 66.0384C57.4164 64.8826 58.4578 64.8792 59.0456 65.2219C59.4102 65.4345 62.7496 67.1985 65.3614 68.5781C66.9601 69.4227 68.2862 70.1232 68.4905 70.2356C69.7608 70.9352 71.6341 69.3335 70.7938 67.9303C70.3925 67.2602 66.8867 60.8656 65.7728 58.7579C65.2659 57.799 65.4045 56.9364 66.5342 56.3625C67.0933 56.0784 68.0935 55.4856 68.9613 54.959C69.8471 54.4216 71.0262 54.8255 71.5056 55.6265C71.8217 56.1547 78.1022 67.7079 82.4727 75.7476C84.7294 79.8987 86.4768 83.1132 86.6311 83.3896C87.5305 85.0014 85.7814 86.7255 84.1284 85.8344Z" fill="white"/>
</svg>
