<svg xmlns="http://www.w3.org/2000/svg" viewBox="0 0 142 60"><title>Risorsa 1</title><g id="Livello_2" data-name="Livello 2"><g id="Livello_1-2" data-name="Livello 1"><polygon points="80 12 80 0 44 0 44 60 80 60 80 48 56 48 56 36 74 36 74 24 56 24 56 12 80 12"/><path d="M109.33,12C114,12,114,19.2,114,19.2V40.8s0,7.2-4.67,7.2H100V12h9.33m0,48c7.18,0,13.12-4.56,15.5-11.9A24.87,24.87,0,0,0,126,40.8V19.2a24.87,24.87,0,0,0-1.17-7.3C122.45,4.56,116.51,0,109.33,0H88V60Z"/><rect x="130" y="48" width="12" height="12"/><path d="M12,36h9.33a16.21,16.21,0,0,0,14.45-7.95A16.51,16.51,0,0,0,38,20V16a16.51,16.51,0,0,0-2.22-8A16.21,16.21,0,0,0,21.33,0H12V12h9.33C26,12,26,16,26,16v4s0,4-4.67,4H12V12H0V60H12Z"/></g></g></svg>