<svg width="70" height="16" viewBox="0 0 70 16" fill="none" xmlns="http://www.w3.org/2000/svg">
<path d="M69.9987 0H62.7344V14.5275H69.9987V0Z" fill="#236FF6"/>
<path d="M0 8.86973H1.85314C1.98981 9.74064 2.82835 10.1344 3.78504 10.1344C4.5703 10.1344 5.23743 9.92826 5.23743 9.2079C5.23743 8.608 4.70697 8.42038 4.12555 8.28141L2.45309 7.85522C1.28098 7.57264 0.203845 6.92177 0.203845 5.23091C0.203845 3.4891 1.60528 2.63672 3.40051 2.63672C5.29534 2.63672 6.61107 3.4891 6.78249 5.45327H4.90155C4.76488 4.68428 4.10007 4.36 3.28006 4.36C2.73338 4.36 2.01529 4.56615 2.01529 5.26566C2.01529 5.79608 2.52722 5.96053 3.00672 6.08561L4.63285 6.48632C6.24044 6.89629 7.04193 7.57958 7.04193 9.26581C7.02571 11.0076 5.67524 11.8623 3.76187 11.8623C1.72574 11.86 0.101923 10.8872 0 8.86973Z" fill="#236FF6"/>
<path d="M10.6406 6.45736L13.9392 2.87182H16.1073L12.9292 6.3207L16.5868 11.6851H14.502L11.7223 7.62012L10.629 8.8153V11.6851H8.84766V0.300781H10.6406V6.45736Z" fill="#236FF6"/>
<path d="M20.8769 13.7197C20.6174 14.4562 19.9873 14.8245 18.9287 14.8245H18.0021V13.1059H18.3611C19.2321 13.1059 19.2645 12.953 19.5564 12.2164L19.7881 11.5679L16.6562 2.875H18.5094L20.7123 9.14276L22.9338 2.875H24.7869L20.8769 13.7197Z" fill="#236FF6"/>
<path d="M31.2087 11.3119V10.3368C30.9516 10.851 30.0807 11.3443 29.1588 11.3443C27.6392 11.3443 25.6562 10.4178 25.6562 7.68931V6.29957C25.6562 3.58261 27.6392 2.64453 29.1588 2.64453C30.0854 2.64453 30.9516 3.13789 31.2087 3.6521V2.87384H33.0016V11.349C33.0016 14.2535 30.8682 15.004 29.3301 15.004C27.8777 15.004 25.9296 14.3392 25.691 11.8632H27.5024C27.6901 12.8198 28.3896 13.2807 29.3301 13.2807C30.4397 13.2761 31.2087 12.6438 31.2087 11.3119ZM27.4515 7.65688C27.4515 8.98872 28.2205 9.60253 29.3301 9.60253C30.4397 9.60253 31.2087 8.98872 31.2087 7.65688V6.32273C31.2087 4.99089 30.4397 4.37708 29.3301 4.37708C28.2205 4.37708 27.4515 4.99089 27.4515 6.32273V7.65688Z" fill="#236FF6"/>
<path d="M36.9322 5.60846H35.1046C35.4103 3.26674 37.3075 2.63672 38.7251 2.63672C40.2632 2.63672 42.3967 3.38718 42.3967 6.29175V11.6886H40.6037V10.8524C40.0409 11.5334 39.1351 11.86 37.9723 11.86C36.367 11.86 34.9609 11.0563 34.9609 9.24496C34.9609 8.2374 35.4034 7.05843 36.872 6.5975C37.9329 6.27322 39.0934 6.18752 40.5783 6.08561V6.06939C40.4926 4.92517 39.7583 4.36 38.7251 4.36C37.8356 4.36 37.1708 4.76998 36.9322 5.60846ZM40.6037 8.17023V7.67455C39.0332 7.77647 37.8356 7.87838 37.187 8.27214C37.0477 8.35665 36.9342 8.47783 36.8591 8.62242C36.7839 8.76702 36.7499 8.92949 36.7608 9.09209C36.7608 9.81013 37.3075 10.1344 38.2642 10.1344C39.288 10.1344 40.6037 9.81013 40.6037 8.17023Z" fill="#236FF6"/>
<path d="M47.2671 9.12546C47.2671 9.77401 47.1328 9.96163 47.8347 9.96163H50.3665V11.6872H47.5752C46.1066 11.6872 45.4742 10.9692 45.4742 9.5864V4.56478H43.6211V2.87392H45.4742V0.875H47.2671V2.87392H50.3665V4.56478H47.2671V9.12546Z" fill="#236FF6"/>
<path d="M57.1832 8.90389H59.0107C58.705 11.2433 56.8079 11.8756 55.3903 11.8756C53.8522 11.8756 51.7188 11.1252 51.7188 8.2206V6.30738C51.7188 3.40281 53.8522 2.65234 55.3903 2.65234C56.9284 2.65234 59.0688 3.40281 59.0688 6.30738V7.89632H53.5093V8.18585C53.5093 9.51769 54.2784 10.15 55.388 10.15C56.289 10.15 56.9446 9.74005 57.1832 8.90389ZM53.5093 6.29116V6.30738H57.2666V6.29116C57.2504 5.01028 56.4813 4.37795 55.388 4.37795C54.2946 4.37795 53.5093 5.01028 53.5093 6.29116Z" fill="#236FF6"/>
</svg>
