<svg xmlns="http://www.w3.org/2000/svg" width="182" height="58"><g fill="none" fill-rule="evenodd"><path stroke="#F02300" stroke-width="2.59" d="M2.733 16.77l18.306 37.737c1.013 1.708 3.522 1.73 4.497 0l18.278-30.93c.962-1.706-.286-3.804-2.262-3.804h-14.08c-1.962 0-3.21 2.072-2.276 3.777l18.233 30.957c1.02 1.862 3.759 1.93 4.639 0L67.652 7.318C69.074 4.2 66.386.78 62.975 1.368l-57.26 9.047c-2.966.51-4.504 3.79-2.982 6.355z"/><path fill="#191414" d="M112.364 18.05l2.28-5.024 2.265 5.024h-4.545zm1.767-6.318l-4.545 9.92h1.155l1.182-2.603h5.428l1.168 2.603h1.21l-4.544-9.92h-1.054zm-11.51 23.372l2.28-5.024 2.265 5.024h-4.544zm1.767-6.318l-4.545 9.92h1.155l1.182-2.603h5.428l1.168 2.603h1.21l-4.544-9.92h-1.054zm10.827 9.062c-1.383 0-2.38-.464-3.42-1.393l-.698.816c1.197 1.055 2.493 1.576 4.075 1.576 1.98 0 3.405-1.097 3.405-2.8 0-1.52-1.026-2.322-3.249-2.8-2.194-.465-2.707-.986-2.707-1.928 0-.901.827-1.605 2.123-1.605 1.026 0 1.952.324 2.878 1.07l.655-.859c-1.012-.802-2.051-1.21-3.504-1.21-1.895 0-3.277 1.126-3.277 2.702 0 1.632 1.055 2.364 3.348 2.857 2.094.436 2.593.957 2.593 1.886 0 .999-.884 1.688-2.222 1.688zm.398 13.424h-2.465v-4.335h2.522c1.61 0 2.678.733 2.678 2.154 0 1.309-1.083 2.18-2.735 2.18zm.142-5.362h-3.732v9.85h1.125v-3.475h2.422c2.123 0 3.918-1.098 3.918-3.237 0-1.956-1.482-3.138-3.733-3.138zm9.772-8.062c-2.28 0-3.932-1.83-3.932-4.08 0-2.252 1.624-4.054 3.904-4.054 2.279 0 3.932 1.83 3.932 4.081 0 2.252-1.625 4.053-3.904 4.053zm0-9.16c-3.034 0-5.1 2.378-5.1 5.107 0 2.73 2.037 5.08 5.072 5.08 3.034 0 5.1-2.378 5.1-5.108 0-2.73-2.038-5.08-5.072-5.08zm-2.863 17.222h-1.126v9.85h6.739v-1.027h-5.613V45.91zm44.229-17.054h-1.126v9.85h6.74V37.68h-5.614v-8.823zM131.48 51.3h5.442v-1.013h-5.442v-3.364h6.083V45.91h-7.209v9.85h7.28v-1.013h-6.154V51.3zm44.229-13.607v-3.447h5.442v-1.014h-5.442V29.87h6.083v-1.013h-7.209v9.85h7.28v-1.013h-6.154zm-15.768.014h-3.348v-3.475h3.148c1.738 0 2.65.619 2.65 1.702 0 1.112-.94 1.773-2.45 1.773zm-3.348-7.852h3.035c1.424 0 2.207.633 2.207 1.619 0 1.167-.94 1.773-2.293 1.773h-2.949v-3.392zm4.801 3.757c.783-.338 1.581-.999 1.581-2.293 0-1.506-1.282-2.463-3.248-2.463h-4.245v9.85h4.43c2.18 0 3.619-.999 3.619-2.702 0-1.364-.954-2.04-2.137-2.392zm-21.082 3.138l-6.282-7.894h-1.055v9.85h1.097V30.63l6.44 8.077h.898v-9.85h-1.098v7.894zm5.84-1.646l2.28-5.024 2.265 5.024h-4.545zm1.766-6.318l-4.544 9.92h1.154l1.183-2.603h5.427l1.169 2.603h1.21l-4.544-9.92h-1.055zm-55.639 5.46h5.442v-1.014H92.28V29.87h6.083v-1.013h-7.209v9.85h7.28v-1.013H92.28v-3.447zm2.31-22.444h-1.183l-2.85 8.204-2.734-8.232h-.927l-2.735 8.232-2.85-8.204h-1.224l3.561 9.92h.94l2.75-7.992 2.735 7.992h.955l3.561-9.92zm9.314 8.837H97.75v-3.448h5.442v-1.013H97.75v-3.363h6.083v-1.013h-7.208v9.85h7.28v-1.013zm.67 34.263c-2.28 0-3.932-1.829-3.932-4.08 0-2.252 1.623-4.053 3.903-4.053 2.28 0 3.932 1.83 3.932 4.08 0 2.252-1.624 4.053-3.903 4.053zm0-9.16c-3.035 0-5.1 2.378-5.1 5.108 0 2.73 2.037 5.08 5.071 5.08 3.035 0 5.1-2.378 5.1-5.108 0-2.73-2.037-5.08-5.071-5.08zM81.98 33.879v-3.996h3.077c1.61 0 2.55.732 2.55 1.956 0 1.28-1.068 2.04-2.564 2.04H81.98zm6.767-2.082c0-1.773-1.41-2.94-3.604-2.94h-4.288v9.85h1.125v-3.828h2.85l2.892 3.827h1.381l-3.062-4.024c1.567-.282 2.706-1.239 2.706-2.885zm-4.302 19.475H81.98v-4.335h2.522c1.61 0 2.678.733 2.678 2.154 0 1.309-1.083 2.18-2.735 2.18zm.142-5.362h-3.732v9.85h1.125v-3.475h2.422c2.123 0 3.918-1.098 3.918-3.237 0-1.956-1.482-3.138-3.733-3.138zm54.685-25.271h-6.154v-3.448h5.442v-1.013h-5.442v-3.363h6.083v-1.013h-7.208v9.85h7.28v-1.013zm-16.453-7.81h3.078c1.61 0 2.55.732 2.55 1.956 0 1.28-1.069 2.04-2.565 2.04h-3.063V12.83zm0 4.996h2.85l2.891 3.827h1.383l-3.063-4.024c1.567-.282 2.706-1.239 2.706-2.885 0-1.773-1.41-2.941-3.604-2.941h-4.288v9.85h1.125v-3.827zM91.497 51.3h5.442v-1.013h-5.442v-3.364h6.083V45.91h-7.21v9.85h7.28v-1.013h-6.154V51.3z"/></g></svg>