<?xml version="1.0" encoding="utf-8"?>
<!-- Generator: Adobe Illustrator 24.0.1, SVG Export Plug-In . SVG Version: 6.00 Build 0)  -->
<svg version="1.1" id="Ebene_1" xmlns="http://www.w3.org/2000/svg" xmlns:xlink="http://www.w3.org/1999/xlink" x="0px" y="0px"
	 viewBox="0 0 258 102.6" style="enable-background:new 0 0 258 102.6;" xml:space="preserve">
<style type="text/css">
	.st0{fill:#575C5B;}
	.st1{fill:#AEA81C;}
</style>
<g>
	<path class="st0" d="M50.2,0H63L50.4,70.9H38.7l-7-39l-6.5,39H13.6L0,0h12.8l6.4,37.9L25.1,0h12.8l6.4,37.9L50.2,0z"/>
	<path class="st0" d="M64.7,70.9V0h34.8v10.7H76.9v19.3h16.5v10.7H76.9v19.3h22.6v10.7H64.7z"/>
	<path class="st0" d="M121,0c6.8,0,11.8,1.6,15,4.9c2.8,2.9,4.2,6.9,4.2,12v10.3c0,5-2.2,9.3-6.5,12.7l6.5,30.9H127l-4.9-26.7
		c-0.3,0-0.7,0-1.1,0h-7v26.7h-12.2V0H121z M128.3,17.1c0-4.1-2.3-6.2-7-6.2H114v22.7h7.4c1.9,0,3.6-0.6,4.9-1.8
		c1.4-1.2,2-2.7,2-4.4V17.1z"/>
	<path class="st0" d="M154.7,48.4v22.5h-12.2V0h12.2v25.3L169.6,0h13l-16.7,28.9l16.7,42h-14.4l-9.9-28.8L154.7,48.4z"/>
	<g>
		<path class="st1" d="M207.8,11.9c-0.6-0.3-1.4-0.4-2.3-0.4c-1.7,0-3.1,0.5-4.2,1.4c-0.9,0.7-1.5,1.7-1.9,2.9
			c-0.4,1.2-0.5,2.6-0.5,4.4c0.1,2.8,0.6,4.8,1.4,6c1.1,1.6,2.8,2.4,5.2,2.4c2.4,0,4.1-0.9,5.2-2.6c0.9-1.5,1.4-3.4,1.3-5.9
			C212,15.8,210.6,13.1,207.8,11.9z"/>
		<path class="st1" d="M209.1,40.7c-0.8-0.6-2-0.9-3.5-0.9c-2.6,0-4.4,1.1-5.4,3.3c-0.6,1.3-0.8,3.1-0.8,5.3v3.1
			c0,2.1,0.7,3.8,2,5.1c1.1,1.1,2.5,1.7,4.2,1.7c2.7-0.1,4.6-1.4,5.7-3.9c0.4-0.8,0.6-1.8,0.6-3v-3.1
			C211.8,44.6,210.9,42,209.1,40.7z"/>
		<path class="st1" d="M186.7,0v70.9h70.9V0H186.7z M221.8,53c0,4.3-1.5,7.9-4.7,10.8c-3.1,3-6.8,4.4-11.2,4.4h-0.8
			c-4.4,0-8.1-1.5-11.2-4.5c-3.1-3-4.6-6.6-4.6-10.8v-5.8c0-3.9,1.4-7.3,4.1-10.3c1.2-1.3,2.5-2.3,4.1-3.1c-2.7-1.3-4.8-3.5-6.2-6.6
			c-0.7-1.6-1.1-3.6-1.1-6v-3.5c0-4.2,1.3-7.6,3.8-10.3c2.8-3.1,6.6-4.6,11.2-4.6h0.8c4.7,0,8.4,1.5,11.3,4.6
			c2.5,2.8,3.8,6.2,3.8,10.3V21c0,4-1.2,7.3-3.7,9.9c-1.1,1.2-2.3,2.1-3.6,2.8c3,1.6,5.3,4,6.9,7.3c0.8,1.7,1.3,3.7,1.3,6.1V53z
			 M254.9,52.2c0,4.7-1.6,8.6-4.7,11.7c-3,2.9-6.8,4.4-11.3,4.4c-4.4,0-8.1-1.5-11-4.6c-2.8-2.9-4.2-6.5-4.2-10.8v-1.5l9.7-0.7
			l0.2,2.2c0.2,2.6,1.3,4.3,3.3,5.1c0.6,0.3,1.2,0.4,1.8,0.4c4.1,0,6.2-2.1,6.2-6.2V36.5c0-1.9-0.7-3.4-2.2-4.7
			c-0.7-0.6-1.6-0.9-2.8-0.9c-1.8,0-3.1,0.7-4,2c-0.7,1.2-1.1,2.4-1.1,3.7v1.7h-10.1V3.3h29.6V13h-19.5v13.8c1-1.4,2.4-2.4,4.2-3.2
			c1-0.4,2.1-0.6,3.4-0.6c4.4,0,7.7,1.5,9.8,4.5c1.8,2.6,2.7,6.2,2.7,10.9V52.2z"/>
	</g>
	<g>
		<path class="st0" d="M16.4,92.5h-4.9l-1.4,4.9H8.3l5.2-17.7h1l5.2,17.7h-2L16.4,92.5z M12,90.8h4l-1.5-5.4L14,82.8H14l-0.5,2.7
			L12,90.8z"/>
		<path class="st0" d="M29.1,97.9c0,1.6-0.4,2.8-1.1,3.6c-0.7,0.8-1.8,1.1-3.1,1.1c-0.8,0-1.5-0.1-2-0.2c-0.5-0.1-1-0.3-1.3-0.5
			l0.5-1.5c0.3,0.1,0.7,0.3,1.1,0.4c0.4,0.1,0.9,0.2,1.5,0.2c1,0,1.7-0.3,2.1-0.8c0.4-0.6,0.6-1.5,0.6-2.8v-0.9h-0.1
			c-0.3,0.4-0.6,0.7-1,0.9c-0.4,0.2-0.9,0.3-1.6,0.3c-1.3,0-2.3-0.5-3-1.6c-0.6-1-0.9-2.7-0.9-4.9c0-2.1,0.4-3.8,1.2-4.9
			c0.8-1.1,2-1.6,3.6-1.6c0.8,0,1.5,0.1,2,0.2c0.6,0.1,1.1,0.3,1.5,0.5V97.9z M27.3,86.7c-0.5-0.3-1.1-0.4-1.9-0.4
			c-0.8,0-1.5,0.4-2,1.2c-0.5,0.8-0.8,2-0.8,3.7c0,0.7,0,1.3,0.1,1.9c0.1,0.6,0.2,1.1,0.4,1.5c0.2,0.4,0.5,0.8,0.8,1
			c0.3,0.2,0.7,0.4,1.1,0.4c0.6,0,1.1-0.2,1.5-0.5c0.4-0.3,0.6-0.8,0.8-1.5V86.7z"/>
		<path class="st0" d="M39.6,96.5c-0.4,0.4-0.9,0.6-1.5,0.8c-0.6,0.2-1.3,0.3-1.9,0.3c-0.8,0-1.5-0.2-2-0.5c-0.6-0.3-1-0.7-1.4-1.3
			c-0.4-0.6-0.6-1.3-0.8-2.1c-0.2-0.8-0.3-1.7-0.3-2.7c0-2.1,0.4-3.7,1.2-4.9c0.8-1.1,1.9-1.7,3.3-1.7c0.5,0,0.9,0.1,1.4,0.2
			c0.5,0.1,0.9,0.3,1.2,0.7c0.4,0.3,0.7,0.8,0.9,1.5c0.2,0.6,0.3,1.5,0.3,2.5c0,0.3,0,0.6,0,0.9c0,0.3-0.1,0.7-0.1,1h-6.3
			c0,0.7,0.1,1.4,0.2,1.9c0.1,0.6,0.3,1.1,0.5,1.5c0.2,0.4,0.6,0.7,1,0.9c0.4,0.2,0.9,0.3,1.5,0.3c0.4,0,0.9-0.1,1.3-0.2
			c0.4-0.2,0.8-0.4,1-0.6L39.6,96.5z M38.2,89.8c0-1.2-0.1-2.2-0.5-2.7c-0.4-0.6-0.9-0.9-1.6-0.9c-0.8,0-1.4,0.3-1.8,0.9
			c-0.4,0.6-0.7,1.5-0.8,2.7H38.2z"/>
		<path class="st0" d="M48.9,97.3v-7.6c0-1.2-0.1-2.1-0.4-2.7c-0.3-0.6-0.8-0.8-1.6-0.8c-0.7,0-1.2,0.2-1.6,0.6
			c-0.4,0.4-0.7,0.9-0.9,1.5v9.1h-1.8V84.9h1.3l0.3,1.3h0.1c0.3-0.4,0.7-0.8,1.3-1.1c0.5-0.3,1.2-0.5,1.9-0.5c0.5,0,1,0.1,1.4,0.2
			c0.4,0.1,0.7,0.4,1,0.8c0.3,0.4,0.5,0.8,0.6,1.4c0.1,0.6,0.2,1.4,0.2,2.3v8.1H48.9z"/>
		<path class="st0" d="M52.3,84.9h1.5v-2.5l1.8-0.6v3h2.7v1.6h-2.7v7.4c0,0.7,0.1,1.3,0.3,1.6c0.2,0.3,0.5,0.5,0.9,0.5
			c0.3,0,0.6,0,0.9-0.1c0.2-0.1,0.5-0.2,0.8-0.3l0.3,1.4c-0.4,0.2-0.8,0.3-1.2,0.4c-0.4,0.1-0.9,0.2-1.4,0.2c-0.8,0-1.4-0.3-1.8-0.8
			c-0.4-0.5-0.5-1.4-0.5-2.6v-7.7h-1.5V84.9z"/>
		<path class="st0" d="M62.2,84.9v7.6c0,1.3,0.1,2.2,0.4,2.7c0.3,0.5,0.7,0.8,1.4,0.8c0.3,0,0.7-0.1,0.9-0.2
			c0.3-0.1,0.5-0.3,0.7-0.6c0.2-0.2,0.4-0.5,0.6-0.8c0.2-0.3,0.3-0.6,0.4-0.9v-8.6h1.8v8.9c0,0.6,0,1.2,0.1,1.9
			c0,0.6,0.1,1.2,0.2,1.7h-1.3l-0.4-1.7h-0.1c-0.3,0.5-0.7,1-1.2,1.4c-0.5,0.4-1.2,0.6-2,0.6c-0.5,0-1-0.1-1.4-0.2
			c-0.4-0.1-0.7-0.4-1-0.7c-0.3-0.3-0.5-0.8-0.6-1.4c-0.1-0.6-0.2-1.4-0.2-2.3v-8.1H62.2z"/>
		<path class="st0" d="M71.5,84.9h1.3l0.3,1.3h0.1c0.2-0.5,0.5-0.9,0.9-1.1c0.4-0.3,0.8-0.4,1.4-0.4c0.4,0,0.8,0.1,1.3,0.2l-0.3,1.8
			c-0.4-0.1-0.8-0.2-1.1-0.2c-0.5,0-1,0.2-1.3,0.5c-0.3,0.3-0.5,0.7-0.6,1.2v9.2h-1.8V84.9z"/>
		<path class="st0" d="M82.6,84.9h1.5v-0.7c0-1.6,0.2-2.7,0.7-3.4c0.4-0.7,1.2-1,2.3-1c0.4,0,0.8,0,1.2,0.1c0.3,0,0.7,0.2,1.1,0.3
			l-0.4,1.5c-0.3-0.1-0.6-0.2-0.8-0.3c-0.3,0-0.5-0.1-0.7-0.1c-0.3,0-0.6,0.1-0.8,0.2c-0.2,0.1-0.3,0.3-0.4,0.6
			c-0.1,0.3-0.1,0.6-0.2,1.1c0,0.4,0,1,0,1.6h2.6v1.6h-2.6v10.8h-1.8V86.5h-1.5V84.9z"/>
		<path class="st0" d="M91.8,84.9v7.6c0,1.3,0.1,2.2,0.4,2.7c0.3,0.5,0.7,0.8,1.4,0.8c0.3,0,0.7-0.1,0.9-0.2
			c0.3-0.1,0.5-0.3,0.7-0.6c0.2-0.2,0.4-0.5,0.6-0.8c0.2-0.3,0.3-0.6,0.4-0.9v-8.6H98v8.9c0,0.6,0,1.2,0.1,1.9
			c0,0.6,0.1,1.2,0.2,1.7H97l-0.4-1.7h-0.1c-0.3,0.5-0.7,1-1.2,1.4c-0.5,0.4-1.2,0.6-2,0.6c-0.5,0-1-0.1-1.4-0.2
			c-0.4-0.1-0.7-0.4-1-0.7c-0.3-0.3-0.5-0.8-0.6-1.4C90.1,94.7,90,93.9,90,93v-8.1H91.8z M91,81.1c0-0.4,0.1-0.7,0.3-0.9
			c0.2-0.2,0.5-0.3,0.8-0.3c0.3,0,0.6,0.1,0.8,0.3c0.2,0.2,0.3,0.5,0.3,0.9c0,0.3-0.1,0.6-0.3,0.8c-0.2,0.2-0.5,0.3-0.8,0.3
			c-0.3,0-0.6-0.1-0.8-0.3C91.1,81.7,91,81.4,91,81.1z M94.9,81.1c0-0.4,0.1-0.7,0.3-0.9c0.2-0.2,0.5-0.3,0.8-0.3
			c0.3,0,0.6,0.1,0.8,0.3c0.2,0.2,0.3,0.5,0.3,0.9c0,0.3-0.1,0.6-0.3,0.8c-0.2,0.2-0.5,0.3-0.8,0.3c-0.3,0-0.6-0.1-0.8-0.3
			C95,81.7,94.9,81.4,94.9,81.1z"/>
		<path class="st0" d="M101.1,84.9h1.3l0.3,1.3h0.1c0.2-0.5,0.5-0.9,0.9-1.1c0.4-0.3,0.8-0.4,1.4-0.4c0.4,0,0.8,0.1,1.3,0.2
			l-0.3,1.8c-0.4-0.1-0.8-0.2-1.1-0.2c-0.5,0-1,0.2-1.3,0.5c-0.3,0.3-0.5,0.7-0.6,1.2v9.2h-1.8V84.9z"/>
		<path class="st0" d="M113.5,79.9c0.3,0,0.6-0.1,0.9-0.1c0.3,0,0.7,0,1,0c0.3,0,0.7,0,1,0c0.3,0,0.6,0,0.9,0c1.2,0,2.2,0.2,3.1,0.6
			c0.8,0.4,1.5,1,2.1,1.8c0.5,0.8,0.9,1.7,1.1,2.8c0.2,1.1,0.3,2.3,0.3,3.6c0,1.2-0.1,2.3-0.3,3.4c-0.2,1.1-0.6,2.1-1.1,2.9
			c-0.5,0.8-1.2,1.5-2.1,2c-0.9,0.5-2,0.7-3.3,0.7c-0.2,0-0.5,0-0.8,0c-0.3,0-0.7,0-1,0c-0.4,0-0.7,0-1-0.1c-0.3,0-0.5,0-0.7-0.1
			V79.9z M117.3,81.4c-0.2,0-0.3,0-0.5,0c-0.2,0-0.4,0-0.6,0c-0.2,0-0.4,0-0.5,0c-0.2,0-0.3,0-0.4,0v14.2c0.1,0,0.2,0,0.4,0
			c0.2,0,0.4,0,0.5,0c0.2,0,0.4,0,0.5,0c0.2,0,0.3,0,0.4,0c0.9,0,1.7-0.2,2.3-0.6c0.6-0.4,1.1-0.9,1.5-1.6c0.4-0.7,0.6-1.5,0.8-2.3
			c0.1-0.9,0.2-1.8,0.2-2.8c0-0.9-0.1-1.7-0.2-2.6c-0.1-0.8-0.4-1.6-0.7-2.3c-0.3-0.7-0.8-1.2-1.4-1.6
			C119,81.6,118.2,81.4,117.3,81.4z"/>
		<path class="st0" d="M126.5,81.1c0-0.4,0.1-0.7,0.3-1c0.2-0.2,0.5-0.4,0.9-0.4c0.4,0,0.7,0.1,0.9,0.4c0.2,0.2,0.4,0.6,0.4,1
			c0,0.4-0.1,0.7-0.4,0.9c-0.2,0.2-0.5,0.3-0.9,0.3c-0.4,0-0.7-0.1-0.9-0.3C126.6,81.8,126.5,81.5,126.5,81.1z M126.8,84.9h1.8v12.4
			h-1.8V84.9z"/>
		<path class="st0" d="M139.9,97.9c0,1.6-0.4,2.8-1.1,3.6c-0.7,0.8-1.8,1.1-3.1,1.1c-0.8,0-1.5-0.1-2-0.2c-0.5-0.1-1-0.3-1.3-0.5
			l0.5-1.5c0.3,0.1,0.7,0.3,1.1,0.4c0.4,0.1,0.9,0.2,1.5,0.2c1,0,1.7-0.3,2.1-0.8c0.4-0.6,0.6-1.5,0.6-2.8v-0.9H138
			c-0.3,0.4-0.6,0.7-1,0.9c-0.4,0.2-0.9,0.3-1.6,0.3c-1.3,0-2.3-0.5-3-1.6c-0.6-1-0.9-2.7-0.9-4.9c0-2.1,0.4-3.8,1.2-4.9
			c0.8-1.1,2-1.6,3.6-1.6c0.8,0,1.5,0.1,2,0.2c0.6,0.1,1.1,0.3,1.5,0.5V97.9z M138.1,86.7c-0.5-0.3-1.1-0.4-1.9-0.4
			c-0.8,0-1.5,0.4-2,1.2c-0.5,0.8-0.8,2-0.8,3.7c0,0.7,0,1.3,0.1,1.9c0.1,0.6,0.2,1.1,0.4,1.5c0.2,0.4,0.5,0.8,0.8,1
			c0.3,0.2,0.7,0.4,1.1,0.4c0.6,0,1.1-0.2,1.5-0.5c0.4-0.3,0.6-0.8,0.8-1.5V86.7z"/>
		<path class="st0" d="M142.9,81.1c0-0.4,0.1-0.7,0.3-1c0.2-0.2,0.5-0.4,0.9-0.4c0.4,0,0.7,0.1,0.9,0.4c0.2,0.2,0.4,0.6,0.4,1
			c0,0.4-0.1,0.7-0.4,0.9c-0.2,0.2-0.5,0.3-0.9,0.3c-0.4,0-0.7-0.1-0.9-0.3C143,81.8,142.9,81.5,142.9,81.1z M143.2,84.9h1.8v12.4
			h-1.8V84.9z"/>
		<path class="st0" d="M147.2,84.9h1.5v-2.5l1.8-0.6v3h2.7v1.6h-2.7v7.4c0,0.7,0.1,1.3,0.3,1.6c0.2,0.3,0.5,0.5,0.9,0.5
			c0.3,0,0.6,0,0.9-0.1c0.2-0.1,0.5-0.2,0.8-0.3l0.3,1.4c-0.4,0.2-0.8,0.3-1.2,0.4c-0.4,0.1-0.9,0.2-1.4,0.2c-0.8,0-1.4-0.3-1.8-0.8
			c-0.4-0.5-0.5-1.4-0.5-2.6v-7.7h-1.5V84.9z"/>
		<path class="st0" d="M155.3,85.6c0.5-0.3,1.1-0.5,1.8-0.7c0.7-0.2,1.4-0.2,2.2-0.2c0.7,0,1.3,0.1,1.7,0.3c0.4,0.2,0.8,0.5,1,0.8
			c0.2,0.4,0.4,0.8,0.5,1.2c0.1,0.5,0.1,0.9,0.1,1.4c0,1,0,2-0.1,2.9c0,0.9-0.1,1.8-0.1,2.7c0,0.6,0,1.2,0.1,1.8
			c0,0.5,0.1,1,0.2,1.5h-1.4l-0.4-1.5h-0.1c-0.2,0.4-0.6,0.8-1.1,1.1c-0.5,0.3-1.1,0.5-1.9,0.5c-0.9,0-1.6-0.3-2.2-0.9
			c-0.6-0.6-0.9-1.5-0.9-2.6c0-0.7,0.1-1.3,0.4-1.8c0.2-0.5,0.6-0.9,1-1.2c0.4-0.3,1-0.5,1.6-0.6c0.6-0.1,1.3-0.2,2-0.2
			c0.2,0,0.3,0,0.5,0c0.2,0,0.3,0,0.5,0c0-0.5,0.1-1,0.1-1.4c0-0.9-0.1-1.6-0.4-2c-0.3-0.4-0.8-0.6-1.5-0.6c-0.5,0-1,0.1-1.5,0.2
			c-0.5,0.1-1,0.3-1.4,0.5L155.3,85.6z M160.6,91.7c-0.2,0-0.3,0-0.5,0c-0.2,0-0.3,0-0.5,0c-0.4,0-0.8,0-1.2,0.1
			c-0.4,0.1-0.7,0.2-1,0.3c-0.3,0.2-0.5,0.4-0.7,0.7c-0.2,0.3-0.3,0.6-0.3,1.1c0,0.7,0.2,1.2,0.5,1.5c0.3,0.4,0.7,0.5,1.2,0.5
			c0.7,0,1.2-0.2,1.6-0.5c0.4-0.3,0.6-0.7,0.8-1.1V91.7z"/>
		<path class="st0" d="M167.4,94.4c0,0.6,0.1,1,0.2,1.2c0.2,0.2,0.4,0.4,0.7,0.4c0.3,0,0.8-0.1,1.2-0.3l0.2,1.4
			c-0.2,0.1-0.5,0.2-0.9,0.3c-0.4,0.1-0.7,0.1-1.1,0.1c-0.6,0-1.1-0.2-1.5-0.6c-0.4-0.4-0.6-1.1-0.6-2.1V79.9h1.8V94.4z"/>
		<path class="st0" d="M178.3,84.9v7.6c0,1.3,0.1,2.2,0.4,2.7c0.3,0.5,0.7,0.8,1.4,0.8c0.3,0,0.7-0.1,0.9-0.2
			c0.3-0.1,0.5-0.3,0.7-0.6c0.2-0.2,0.4-0.5,0.6-0.8c0.2-0.3,0.3-0.6,0.4-0.9v-8.6h1.8v8.9c0,0.6,0,1.2,0.1,1.9
			c0,0.6,0.1,1.2,0.2,1.7h-1.3l-0.4-1.7H183c-0.3,0.5-0.7,1-1.2,1.4c-0.5,0.4-1.2,0.6-2,0.6c-0.5,0-1-0.1-1.4-0.2
			c-0.4-0.1-0.7-0.4-1-0.7c-0.3-0.3-0.5-0.8-0.6-1.4s-0.2-1.4-0.2-2.3v-8.1H178.3z"/>
		<path class="st0" d="M194,97.3v-7.6c0-1.2-0.1-2.1-0.4-2.7c-0.3-0.6-0.8-0.8-1.6-0.8c-0.7,0-1.2,0.2-1.6,0.6
			c-0.4,0.4-0.7,0.9-0.9,1.5v9.1h-1.8V84.9h1.3l0.3,1.3h0.1c0.3-0.4,0.7-0.8,1.3-1.1c0.5-0.3,1.2-0.5,1.9-0.5c0.5,0,1,0.1,1.4,0.2
			c0.4,0.1,0.7,0.4,1,0.8c0.3,0.4,0.5,0.8,0.6,1.4c0.1,0.6,0.2,1.4,0.2,2.3v8.1H194z"/>
		<path class="st0" d="M206.5,93.1c0,0.8,0,1.6,0,2.3s0.1,1.4,0.2,2h-1.2l-0.4-1.5H205c-0.2,0.5-0.6,0.9-1.1,1.2
			c-0.5,0.3-1.1,0.5-1.8,0.5c-1.3,0-2.3-0.5-3-1.6c-0.7-1-1-2.7-1-4.9c0-2.1,0.4-3.7,1.2-4.8c0.8-1.1,1.9-1.6,3.3-1.6
			c0.5,0,0.9,0,1.1,0.1c0.3,0.1,0.6,0.2,0.9,0.3v-5.1h1.8V93.1z M204.7,86.9c-0.2-0.2-0.5-0.3-0.8-0.4c-0.3-0.1-0.7-0.1-1.2-0.1
			c-0.9,0-1.6,0.4-2.1,1.2c-0.5,0.8-0.7,2-0.7,3.7c0,0.7,0,1.4,0.1,2c0.1,0.6,0.2,1.1,0.4,1.5c0.2,0.4,0.4,0.8,0.7,1
			c0.3,0.2,0.7,0.3,1.1,0.3c1.2,0,2-0.7,2.3-2.1V86.9z"/>
		<path class="st0" d="M214.9,80.1c0.5-0.1,1.1-0.2,1.7-0.3c0.6,0,1.2-0.1,1.8-0.1c0.7,0,1.3,0.1,2,0.2c0.6,0.1,1.2,0.4,1.8,0.8
			c0.5,0.4,0.9,0.9,1.3,1.6c0.3,0.7,0.5,1.6,0.5,2.7c0,1-0.2,1.9-0.5,2.7c-0.3,0.7-0.7,1.3-1.2,1.8c-0.5,0.5-1.1,0.8-1.7,1
			c-0.7,0.2-1.3,0.3-2,0.3c-0.1,0-0.2,0-0.3,0s-0.3,0-0.5,0c-0.2,0-0.3,0-0.5,0c-0.2,0-0.3,0-0.3,0v6.6h-1.9V80.1z M218.5,81.4
			c-0.3,0-0.7,0-1,0c-0.3,0-0.6,0.1-0.7,0.1V89c0.1,0,0.2,0.1,0.3,0.1c0.1,0,0.3,0,0.4,0c0.1,0,0.3,0,0.4,0c0.1,0,0.2,0,0.3,0
			c0.5,0,0.9-0.1,1.3-0.2c0.4-0.1,0.8-0.3,1.1-0.6c0.3-0.3,0.6-0.7,0.8-1.2c0.2-0.5,0.3-1.2,0.3-2c0-0.7-0.1-1.3-0.3-1.7
			c-0.2-0.5-0.4-0.8-0.7-1.1c-0.3-0.3-0.7-0.5-1.1-0.6C219.4,81.5,218.9,81.4,218.5,81.4z"/>
		<path class="st0" d="M225.5,84.9h1.3l0.3,1.3h0.1c0.2-0.5,0.5-0.9,0.9-1.1c0.4-0.3,0.8-0.4,1.4-0.4c0.4,0,0.8,0.1,1.3,0.2
			l-0.3,1.8c-0.4-0.1-0.8-0.2-1.1-0.2c-0.5,0-1,0.2-1.3,0.5c-0.3,0.3-0.5,0.7-0.6,1.2v9.2h-1.8V84.9z"/>
		<path class="st0" d="M232.4,81.1c0-0.4,0.1-0.7,0.3-1c0.2-0.2,0.5-0.4,0.9-0.4c0.4,0,0.7,0.1,0.9,0.4c0.2,0.2,0.4,0.6,0.4,1
			c0,0.4-0.1,0.7-0.4,0.9c-0.2,0.2-0.5,0.3-0.9,0.3c-0.4,0-0.7-0.1-0.9-0.3C232.5,81.8,232.4,81.5,232.4,81.1z M232.7,84.9h1.8v12.4
			h-1.8V84.9z"/>
		<path class="st0" d="M244.3,97.3v-7.6c0-1.2-0.1-2.1-0.4-2.7c-0.3-0.6-0.8-0.8-1.6-0.8c-0.7,0-1.2,0.2-1.6,0.6
			c-0.4,0.4-0.7,0.9-0.9,1.5v9.1h-1.8V84.9h1.3l0.3,1.3h0.1c0.3-0.4,0.7-0.8,1.3-1.1c0.5-0.3,1.2-0.5,1.9-0.5c0.5,0,1,0.1,1.4,0.2
			c0.4,0.1,0.7,0.4,1,0.8c0.3,0.4,0.5,0.8,0.6,1.4c0.1,0.6,0.2,1.4,0.2,2.3v8.1H244.3z"/>
		<path class="st0" d="M247.8,84.9h1.5v-2.5l1.8-0.6v3h2.7v1.6h-2.7v7.4c0,0.7,0.1,1.3,0.3,1.6c0.2,0.3,0.5,0.5,0.9,0.5
			c0.3,0,0.6,0,0.9-0.1c0.2-0.1,0.5-0.2,0.8-0.3l0.3,1.4c-0.4,0.2-0.8,0.3-1.2,0.4c-0.4,0.1-0.9,0.2-1.4,0.2c-0.8,0-1.4-0.3-1.8-0.8
			c-0.4-0.5-0.5-1.4-0.5-2.6v-7.7h-1.5V84.9z"/>
		<path class="st0" d="M255.5,96.2c0-0.5,0.1-0.8,0.3-1c0.2-0.2,0.5-0.3,0.9-0.3c0.4,0,0.7,0.1,0.9,0.3c0.2,0.2,0.3,0.6,0.3,1
			c0,0.5-0.1,0.8-0.3,1.1c-0.2,0.2-0.5,0.3-0.9,0.3c-0.4,0-0.7-0.1-0.9-0.3C255.6,97.1,255.5,96.7,255.5,96.2z"/>
	</g>
</g>
</svg>
